<mxfile host="app.diagrams.net" modified="2021-05-04T18:58:30.831Z" agent="5.0 (Windows)" etag="J0fHcGL4jR2YyDwU9ZMd" version="14.6.10" type="github">
  <diagram id="Ar9YzeTu5QtAbvn7ITuL" name="Page-1">
    <mxGraphModel dx="1422" dy="735" grid="1" gridSize="10" guides="1" tooltips="1" connect="1" arrows="1" fold="1" page="1" pageScale="1" pageWidth="827" pageHeight="1169" math="0" shadow="0">
      <root>
        <mxCell id="0" />
        <mxCell id="1" parent="0" />
        <mxCell id="cm9vyNFdxOlE6wyfOcG3-2" value="" style="whiteSpace=wrap;html=1;aspect=fixed;fillColor=#d5e8d4;strokeColor=#82b366;" vertex="1" parent="1">
          <mxGeometry x="190" y="90" width="200" height="200" as="geometry" />
        </mxCell>
        <mxCell id="cm9vyNFdxOlE6wyfOcG3-4" value="" style="edgeStyle=orthogonalEdgeStyle;rounded=0;orthogonalLoop=1;jettySize=auto;html=1;" edge="1" parent="1" source="cm9vyNFdxOlE6wyfOcG3-1" target="cm9vyNFdxOlE6wyfOcG3-3">
          <mxGeometry relative="1" as="geometry" />
        </mxCell>
        <mxCell id="cm9vyNFdxOlE6wyfOcG3-6" value="" style="edgeStyle=orthogonalEdgeStyle;rounded=0;orthogonalLoop=1;jettySize=auto;html=1;entryX=0.5;entryY=0;entryDx=0;entryDy=0;" edge="1" parent="1" source="cm9vyNFdxOlE6wyfOcG3-1" target="cm9vyNFdxOlE6wyfOcG3-11">
          <mxGeometry relative="1" as="geometry">
            <mxPoint x="290" y="320" as="targetPoint" />
          </mxGeometry>
        </mxCell>
        <mxCell id="cm9vyNFdxOlE6wyfOcG3-1" value="" style="rounded=0;whiteSpace=wrap;html=1;fillColor=#dae8fc;strokeColor=#6c8ebf;" vertex="1" parent="1">
          <mxGeometry x="230" y="180" width="120" height="60" as="geometry" />
        </mxCell>
        <mxCell id="cm9vyNFdxOlE6wyfOcG3-10" value="" style="edgeStyle=orthogonalEdgeStyle;rounded=0;orthogonalLoop=1;jettySize=auto;html=1;" edge="1" parent="1" source="cm9vyNFdxOlE6wyfOcG3-3" target="cm9vyNFdxOlE6wyfOcG3-9">
          <mxGeometry relative="1" as="geometry" />
        </mxCell>
        <mxCell id="cm9vyNFdxOlE6wyfOcG3-28" style="edgeStyle=orthogonalEdgeStyle;rounded=0;orthogonalLoop=1;jettySize=auto;html=1;entryX=0.5;entryY=0;entryDx=0;entryDy=0;" edge="1" parent="1" source="cm9vyNFdxOlE6wyfOcG3-3" target="cm9vyNFdxOlE6wyfOcG3-14">
          <mxGeometry relative="1" as="geometry">
            <mxPoint x="560" y="260" as="targetPoint" />
            <Array as="points">
              <mxPoint x="560" y="410" />
              <mxPoint x="465" y="410" />
            </Array>
          </mxGeometry>
        </mxCell>
        <mxCell id="cm9vyNFdxOlE6wyfOcG3-29" style="edgeStyle=orthogonalEdgeStyle;rounded=0;orthogonalLoop=1;jettySize=auto;html=1;entryX=0.75;entryY=0;entryDx=0;entryDy=0;" edge="1" parent="1" source="cm9vyNFdxOlE6wyfOcG3-3" target="cm9vyNFdxOlE6wyfOcG3-11">
          <mxGeometry relative="1" as="geometry">
            <Array as="points">
              <mxPoint x="560" y="410" />
              <mxPoint x="323" y="410" />
            </Array>
          </mxGeometry>
        </mxCell>
        <mxCell id="cm9vyNFdxOlE6wyfOcG3-30" style="edgeStyle=orthogonalEdgeStyle;rounded=0;orthogonalLoop=1;jettySize=auto;html=1;entryX=0.5;entryY=0;entryDx=0;entryDy=0;" edge="1" parent="1" source="cm9vyNFdxOlE6wyfOcG3-3" target="cm9vyNFdxOlE6wyfOcG3-15">
          <mxGeometry relative="1" as="geometry">
            <Array as="points">
              <mxPoint x="560" y="410" />
              <mxPoint x="635" y="410" />
            </Array>
          </mxGeometry>
        </mxCell>
        <mxCell id="cm9vyNFdxOlE6wyfOcG3-3" value="" style="rounded=0;whiteSpace=wrap;html=1;fillColor=#dae8fc;strokeColor=#6c8ebf;" vertex="1" parent="1">
          <mxGeometry x="500" y="180" width="120" height="60" as="geometry" />
        </mxCell>
        <mxCell id="cm9vyNFdxOlE6wyfOcG3-12" value="" style="edgeStyle=orthogonalEdgeStyle;rounded=0;orthogonalLoop=1;jettySize=auto;html=1;" edge="1" parent="1" target="cm9vyNFdxOlE6wyfOcG3-11">
          <mxGeometry relative="1" as="geometry">
            <mxPoint x="290" y="390" as="sourcePoint" />
          </mxGeometry>
        </mxCell>
        <mxCell id="cm9vyNFdxOlE6wyfOcG3-9" value="" style="rounded=0;whiteSpace=wrap;html=1;fillColor=#dae8fc;strokeColor=#6c8ebf;" vertex="1" parent="1">
          <mxGeometry x="840" y="90" width="260" height="550" as="geometry" />
        </mxCell>
        <mxCell id="cm9vyNFdxOlE6wyfOcG3-11" value="" style="whiteSpace=wrap;html=1;rounded=0;fillColor=#dae8fc;strokeColor=#6c8ebf;" vertex="1" parent="1">
          <mxGeometry x="225" y="460" width="130" height="190" as="geometry" />
        </mxCell>
        <mxCell id="cm9vyNFdxOlE6wyfOcG3-14" value="" style="whiteSpace=wrap;html=1;rounded=0;fillColor=#dae8fc;strokeColor=#6c8ebf;" vertex="1" parent="1">
          <mxGeometry x="400" y="460" width="130" height="190" as="geometry" />
        </mxCell>
        <mxCell id="cm9vyNFdxOlE6wyfOcG3-21" style="edgeStyle=orthogonalEdgeStyle;rounded=0;orthogonalLoop=1;jettySize=auto;html=1;entryX=0.004;entryY=0.845;entryDx=0;entryDy=0;entryPerimeter=0;" edge="1" parent="1" source="cm9vyNFdxOlE6wyfOcG3-15" target="cm9vyNFdxOlE6wyfOcG3-9">
          <mxGeometry relative="1" as="geometry" />
        </mxCell>
        <mxCell id="cm9vyNFdxOlE6wyfOcG3-15" value="" style="whiteSpace=wrap;html=1;rounded=0;fillColor=#dae8fc;strokeColor=#6c8ebf;" vertex="1" parent="1">
          <mxGeometry x="570" y="460" width="130" height="190" as="geometry" />
        </mxCell>
        <mxCell id="cm9vyNFdxOlE6wyfOcG3-16" value="" style="rounded=0;whiteSpace=wrap;html=1;fillColor=#f8cecc;strokeColor=#b85450;" vertex="1" parent="1">
          <mxGeometry x="230" y="555" width="120" height="60" as="geometry" />
        </mxCell>
        <mxCell id="cm9vyNFdxOlE6wyfOcG3-17" value="" style="rounded=0;whiteSpace=wrap;html=1;fillColor=#f8cecc;strokeColor=#b85450;" vertex="1" parent="1">
          <mxGeometry x="405" y="555" width="120" height="60" as="geometry" />
        </mxCell>
        <mxCell id="cm9vyNFdxOlE6wyfOcG3-18" value="" style="rounded=0;whiteSpace=wrap;html=1;fillColor=#f8cecc;strokeColor=#b85450;" vertex="1" parent="1">
          <mxGeometry x="575" y="555" width="120" height="60" as="geometry" />
        </mxCell>
        <mxCell id="cm9vyNFdxOlE6wyfOcG3-32" value="Client" style="text;html=1;resizable=0;autosize=1;align=center;verticalAlign=middle;points=[];fillColor=none;strokeColor=none;rounded=0;strokeWidth=20;fontSize=20;" vertex="1" parent="1">
          <mxGeometry x="255" y="195" width="70" height="30" as="geometry" />
        </mxCell>
        <mxCell id="cm9vyNFdxOlE6wyfOcG3-34" value="&lt;font style=&quot;font-size: 19px&quot;&gt;Aoolication&lt;/font&gt;" style="text;html=1;strokeColor=none;fillColor=none;align=center;verticalAlign=middle;whiteSpace=wrap;rounded=0;" vertex="1" parent="1">
          <mxGeometry x="235" y="130" width="110" height="30" as="geometry" />
        </mxCell>
        <mxCell id="cm9vyNFdxOlE6wyfOcG3-35" value="Master" style="text;html=1;resizable=0;autosize=1;align=center;verticalAlign=middle;points=[];fillColor=none;strokeColor=none;rounded=0;strokeWidth=20;fontSize=20;" vertex="1" parent="1">
          <mxGeometry x="520" y="195" width="80" height="30" as="geometry" />
        </mxCell>
        <mxCell id="cm9vyNFdxOlE6wyfOcG3-36" value="&lt;div&gt;Zookeeper&lt;/div&gt;&lt;div&gt;集群&lt;br&gt;&lt;/div&gt;" style="text;html=1;resizable=0;autosize=1;align=center;verticalAlign=middle;points=[];fillColor=none;strokeColor=none;rounded=0;strokeWidth=20;fontSize=20;" vertex="1" parent="1">
          <mxGeometry x="915" y="330" width="110" height="50" as="geometry" />
        </mxCell>
        <mxCell id="cm9vyNFdxOlE6wyfOcG3-38" value="&lt;div&gt;Region&lt;/div&gt;&lt;div&gt;Server&lt;br&gt;&lt;/div&gt;" style="text;html=1;strokeColor=none;fillColor=none;align=center;verticalAlign=middle;whiteSpace=wrap;rounded=0;fontSize=20;" vertex="1" parent="1">
          <mxGeometry x="270" y="500" width="40" height="20" as="geometry" />
        </mxCell>
        <mxCell id="cm9vyNFdxOlE6wyfOcG3-39" value="&lt;div&gt;Region&lt;/div&gt;&lt;div&gt;Server&lt;br&gt;&lt;/div&gt;" style="text;html=1;strokeColor=none;fillColor=none;align=center;verticalAlign=middle;whiteSpace=wrap;rounded=0;fontSize=20;" vertex="1" parent="1">
          <mxGeometry x="445" y="500" width="40" height="20" as="geometry" />
        </mxCell>
        <mxCell id="cm9vyNFdxOlE6wyfOcG3-40" value="&lt;div&gt;Region&lt;/div&gt;&lt;div&gt;Server&lt;br&gt;&lt;/div&gt;" style="text;html=1;strokeColor=none;fillColor=none;align=center;verticalAlign=middle;whiteSpace=wrap;rounded=0;fontSize=20;" vertex="1" parent="1">
          <mxGeometry x="615" y="500" width="40" height="20" as="geometry" />
        </mxCell>
        <mxCell id="cm9vyNFdxOlE6wyfOcG3-41" value="MiniSQL" style="text;html=1;strokeColor=none;fillColor=none;align=center;verticalAlign=middle;whiteSpace=wrap;rounded=0;fontSize=20;" vertex="1" parent="1">
          <mxGeometry x="250" y="565" width="80" height="40" as="geometry" />
        </mxCell>
        <mxCell id="cm9vyNFdxOlE6wyfOcG3-42" value="MiniSQL" style="text;html=1;strokeColor=none;fillColor=none;align=center;verticalAlign=middle;whiteSpace=wrap;rounded=0;fontSize=20;" vertex="1" parent="1">
          <mxGeometry x="425" y="565" width="80" height="40" as="geometry" />
        </mxCell>
        <mxCell id="cm9vyNFdxOlE6wyfOcG3-43" value="MiniSQL" style="text;html=1;strokeColor=none;fillColor=none;align=center;verticalAlign=middle;whiteSpace=wrap;rounded=0;fontSize=20;" vertex="1" parent="1">
          <mxGeometry x="595" y="565" width="80" height="40" as="geometry" />
        </mxCell>
      </root>
    </mxGraphModel>
  </diagram>
</mxfile>
